<?xml version="1.0" encoding="UTF-8"?>
<svg width="155px" height="70px" viewBox="0 0 155 70" version="1.1" xmlns="http://www.w3.org/2000/svg" xmlns:xlink="http://www.w3.org/1999/xlink">
    <!-- Generator: Sketch 55.2 (78181) - https://sketchapp.com -->
    <title>Logo + payoff pos</title>
    <desc>Created with Sketch.</desc>
    <defs>
        <polygon id="path-1" points="0.144556305 0.124034093 24.8797035 0.124034093 24.8797035 14 0.144556305 14"></polygon>
        <polygon id="path-3" points="0 48.1565 131.801 48.1565 131.801 0.9995 0 0.9995"></polygon>
    </defs>
    <g id="Logo-+-payoff-pos" stroke="none" stroke-width="1" fill="none" fill-rule="evenodd">
        <rect id="Rectangle" fill="#1A212B" x="-3" y="-3" width="170" height="73"></rect>
        <g id="Group-34" transform="translate(12.000000, 9.000000)">
            <path d="M9.2917,31.4878 L1.4957,34.9278 C0.7457,35.2588 -0.0813,34.6548 0.0067,33.8408 L3.0647,6.1918 C3.1427,5.4618 3.6047,4.8288 4.2767,4.5328 L12.0737,1.0918 C12.8227,0.7608 13.6497,1.3658 13.5627,2.1808 L10.5037,29.8288 C10.4257,30.5588 9.9627,31.1918 9.2917,31.4878" id="Fill-1" fill="#F05D68"></path>
            <g id="Group-5" transform="translate(2.000000, 34.156500)">
                <mask id="mask-2" fill="white">
                    <use xlink:href="#path-1"></use>
                </mask>
                <g id="Clip-4"></g>
                <path d="M7.429,13.5979 L0.577,8.5339 C-0.083,8.0459 0.033,7.0269 0.785,6.7009 L15.557,0.2939 C16.229,0.0019 17.006,0.0909 17.596,0.5259 L24.448,5.5909 C25.107,6.0779 24.991,7.0969 24.24,7.4239 L9.468,13.8299 C8.796,14.1219 8.019,14.0339 7.429,13.5979" id="Fill-3" fill="#45C0BF" mask="url(#mask-2)"></path>
            </g>
            <path d="M16.9495,23.9043 L17.8955,15.4393 C17.9865,14.6223 18.9295,14.2123 19.5895,14.7023 L32.9285,24.9093 C33.5155,25.3443 33.8265,26.0593 33.7455,26.7853 L32.7995,35.2503 C32.7075,36.0673 31.7655,36.4773 31.1055,35.9873 L17.7655,25.7803 C17.1795,25.3443 16.8685,24.6303 16.9495,23.9043" id="Fill-6" fill="#FEC53D"></path>
            <path d="M51.7747,25.1596 C49.4357,25.1596 47.6337,23.3536 47.6337,20.3666 C47.6337,17.3496 49.4357,15.6386 51.7747,15.6386 C54.2087,15.6386 55.9147,17.3496 55.9147,20.3666 C55.9147,23.3536 54.1767,25.1596 51.7747,25.1596 M52.5007,12.4336 C50.1307,12.4336 48.3607,13.5236 47.6667,14.7046 L47.6667,5.4646 L44.0627,5.4646 L44.0627,27.9906 L47.6337,27.9906 L47.6337,25.9686 C48.5187,27.4306 50.1937,28.3636 52.3757,28.3636 C56.8617,28.3636 59.6117,24.9106 59.6117,20.3366 C59.6117,15.8876 57.1157,12.4336 52.5007,12.4336" id="Fill-8" fill="#FEFEFE"></path>
            <path d="M75.8796,12.8384 L72.2126,12.8384 L72.2126,21.7984 C72.2126,23.7904 71.1076,25.1904 68.9896,25.1904 C66.7766,25.1904 65.8926,23.6034 65.8926,21.7364 L65.8926,12.8384 L62.2266,12.8384 L62.2266,22.3894 C62.2266,25.7504 64.3756,28.4254 68.0406,28.4254 C69.8416,28.4254 71.6436,27.6794 72.4036,26.3114 C72.4036,26.9334 72.4656,27.6494 72.5296,27.9894 L76.0366,27.9894 C75.9746,27.4304 75.8796,26.4664 75.8796,25.2214 L75.8796,12.8384 Z" id="Fill-10" fill="#FEFEFE"></path>
            <mask id="mask-4" fill="white">
                <use xlink:href="#path-3"></use>
            </mask>
            <g id="Clip-13"></g>
            <polygon id="Fill-12" fill="#FEFEFE" mask="url(#mask-4)" points="80.621 27.9905 84.256 27.9905 84.256 12.8395 80.621 12.8395"></polygon>
            <polygon id="Fill-14" fill="#FEFEFE" mask="url(#mask-4)" points="80.621 9.0855 84.299 9.0855 84.299 5.4645 80.621 5.4645"></polygon>
            <polygon id="Fill-15" fill="#FEFEFE" mask="url(#mask-4)" points="92.6633 5.4648 88.9963 5.4648 88.9963 27.9908 90.3543 27.9908 92.6633 27.9908 95.6193 27.9908 95.6193 24.3808 92.6633 24.3808"></polygon>
            <path d="M105.2952,25.1899 C102.7982,25.1899 101.1542,23.2609 101.1542,20.3669 C101.1542,17.4749 102.9242,15.6389 105.3252,15.6389 C107.7282,15.6389 109.3712,17.4429 109.3712,20.3369 C109.3712,23.2309 107.6962,25.1899 105.2952,25.1899 L105.2952,25.1899 Z M112.9112,5.4649 L109.3402,5.4649 L109.3402,14.6109 C108.8642,13.6479 107.5062,12.4329 104.8192,12.4329 C100.4912,12.4329 97.4872,16.0119 97.4872,20.3669 C97.4872,24.9409 100.4592,28.3629 104.8832,28.3629 C107.0642,28.3629 108.6772,27.3059 109.4032,26.0309 C109.4032,26.6519 109.4972,27.6479 109.5612,27.9899 L113.0692,27.9899 C113.0372,27.7419 112.9112,26.5909 112.9112,25.2209 L112.9112,5.4649 Z" id="Fill-16" fill="#FEFEFE" mask="url(#mask-4)"></path>
            <path d="M123.8049,25.2217 C121.5609,25.2217 119.5059,23.5417 119.5059,20.3987 C119.5059,17.2567 121.5609,15.6387 123.8049,15.6387 C126.0809,15.6387 128.1029,17.2567 128.1029,20.3987 C128.1029,23.5727 126.0809,25.2217 123.8049,25.2217 M123.8049,12.3727 C119.2219,12.3727 115.8399,15.7627 115.8399,20.3987 C115.8399,25.0657 119.2219,28.4567 123.8049,28.4567 C128.4189,28.4567 131.8009,25.0657 131.8009,20.3987 C131.8009,15.7627 128.4189,12.3727 123.8049,12.3727" id="Fill-17" fill="#FEFEFE" mask="url(#mask-4)"></path>
            <path d="M45.9563,37.9726 C45.1323,37.9726 44.7203,38.2556 44.7203,38.8206 C44.7203,39.0816 44.8143,39.2656 45.0043,39.3736 C45.1933,39.4816 45.6233,39.5926 46.2963,39.7076 C46.9693,39.8236 47.4453,39.9856 47.7253,40.1936 C48.0043,40.4026 48.1443,40.7926 48.1443,41.3656 C48.1443,41.9386 47.9573,42.3586 47.5823,42.6266 C47.2083,42.8936 46.6633,43.0286 45.9453,43.0286 C45.4763,43.0286 44.9243,42.9756 44.2893,42.8716 L43.9503,42.8166 L43.9953,42.0906 C44.8563,42.2176 45.5063,42.2806 45.9453,42.2806 C46.3833,42.2806 46.7173,42.2116 46.9483,42.0746 C47.1793,41.9356 47.2943,41.7056 47.2943,41.3816 C47.2943,41.0586 47.1963,40.8386 46.9993,40.7236 C46.8023,40.6086 46.3723,40.4986 45.7063,40.3936 C45.0413,40.2906 44.5693,40.1376 44.2893,39.9366 C44.0103,39.7366 43.8703,39.3646 43.8703,38.8206 C43.8703,38.2776 44.0653,37.8756 44.4543,37.6156 C44.8433,37.3546 45.3293,37.2246 45.9113,37.2246 C46.3723,37.2246 46.9503,37.2776 47.6453,37.3816 L47.9623,37.4366 L47.9403,38.1516 C47.1013,38.0326 46.4393,37.9726 45.9563,37.9726" id="Fill-18" fill="#FEFEFE" mask="url(#mask-4)"></path>
            <path d="M50.3743,39.9507 C50.3743,40.8057 50.4793,41.4067 50.6903,41.7497 C50.9003,42.0937 51.3413,42.2657 52.0123,42.2657 C52.6833,42.2657 53.1213,42.0957 53.3273,41.7557 C53.5343,41.4157 53.6373,40.8157 53.6373,39.9557 C53.6373,39.0967 53.5213,38.5047 53.2913,38.1797 C53.0623,37.8557 52.6353,37.6937 52.0123,37.6937 C51.3883,37.6937 50.9593,37.8557 50.7263,38.1797 C50.4913,38.5047 50.3743,39.0947 50.3743,39.9507 M49.4573,39.9687 C49.4573,38.8967 49.6523,38.1237 50.0413,37.6467 C50.4303,37.1707 51.0873,36.9317 52.0123,36.9317 C52.9373,36.9317 53.5913,37.1707 53.9773,37.6467 C54.3613,38.1237 54.5543,38.8967 54.5543,39.9687 C54.5543,41.0387 54.3723,41.8167 54.0063,42.3007 C53.6413,42.7857 52.9743,43.0277 52.0053,43.0277 C51.0373,43.0277 50.3703,42.7857 50.0053,42.3007 C49.6403,41.8167 49.4573,41.0387 49.4573,39.9687" id="Fill-19" fill="#FEFEFE" mask="url(#mask-4)"></path>
            <path d="M57.1501,37.811 L57.1501,42.911 L56.2561,42.911 L56.2561,37.811 L55.5061,37.811 L55.5061,37.049 L56.2561,37.049 L56.2561,36.521 C56.2561,35.693 56.3761,35.128 56.6141,34.828 C56.8521,34.527 57.2691,34.376 57.8641,34.376 L59.0671,34.458 L59.0551,35.186 C58.6101,35.169 58.2431,35.162 57.9541,35.162 C57.6641,35.162 57.4581,35.255 57.3351,35.443 C57.2111,35.631 57.1501,35.994 57.1501,36.533 L57.1501,37.049 L58.8771,37.049 L58.8771,37.811 L57.1501,37.811 Z" id="Fill-20" fill="#FEFEFE" mask="url(#mask-4)"></path>
            <path d="M63.0325,37.811 L61.1385,37.811 L61.1385,40.613 C61.1385,41.285 61.1885,41.727 61.2875,41.937 C61.3865,42.148 61.6235,42.253 61.9965,42.253 L63.0565,42.184 L63.1155,42.911 C62.5835,42.997 62.1785,43.04 61.9015,43.04 C61.2825,43.04 60.8535,42.891 60.6155,42.594 C60.3765,42.297 60.2575,41.73 60.2575,40.894 L60.2575,37.811 L59.4125,37.811 L59.4125,37.049 L60.2575,37.049 L60.2575,35.255 L61.1385,35.255 L61.1385,37.049 L63.0325,37.049 L63.0325,37.811 Z" id="Fill-21" fill="#FEFEFE" mask="url(#mask-4)"></path>
            <polygon id="Fill-22" fill="#FEFEFE" mask="url(#mask-4)" points="63.6399 37.0493 64.5329 37.0493 65.7359 42.1483 65.9259 42.1483 67.3429 37.1663 68.2719 37.1663 69.6889 42.1483 69.8909 42.1483 71.0819 37.0493 71.9749 37.0493 70.5579 42.9103 69.0699 42.9103 67.8069 38.3273 66.5449 42.9103 65.0569 42.9103"></polygon>
            <path d="M73.6785,41.2109 C73.6785,41.9299 73.9795,42.2889 74.5835,42.2889 C75.1225,42.2889 75.6555,42.1999 76.1785,42.0199 L76.4525,41.9259 L76.4525,39.9909 L74.6905,40.1549 C74.3335,40.1869 74.0755,40.2889 73.9165,40.4609 C73.7575,40.6319 73.6785,40.8819 73.6785,41.2109 M77.3455,38.8189 L77.3455,41.8199 C77.3695,42.1089 77.5995,42.2819 78.0365,42.3359 L78.0015,43.0279 C77.3735,43.0279 76.9015,42.8709 76.5835,42.5589 C75.8695,42.8709 75.1555,43.0279 74.4405,43.0279 C73.8925,43.0279 73.4755,42.8749 73.1895,42.5699 C72.9045,42.2659 72.7615,41.8279 72.7615,41.2569 C72.7615,40.6869 72.9085,40.2669 73.2015,39.9979 C73.4955,39.7279 73.9565,39.5619 74.5835,39.4989 L76.4525,39.3229 L76.4525,38.8189 C76.4525,38.4199 76.3655,38.1349 76.1915,37.9629 C76.0165,37.7919 75.7785,37.7059 75.4765,37.7059 C74.8415,37.7059 74.1825,37.7449 73.4995,37.8229 L73.1305,37.8579 L73.0955,37.1899 C73.9685,37.0179 74.7415,36.9319 75.4165,36.9319 C76.0915,36.9319 76.5815,37.0839 76.8875,37.3889 C77.1935,37.6939 77.3455,38.1699 77.3455,38.8189" id="Fill-23" fill="#FEFEFE" mask="url(#mask-4)"></path>
            <path d="M79.1086,42.9101 L79.1086,37.0491 L79.9896,37.0491 L79.9896,37.8461 C80.6806,37.3771 81.4066,37.0681 82.1686,36.9201 L82.1686,37.8111 C81.8356,37.8741 81.4876,37.9721 81.1266,38.1041 C80.7656,38.2371 80.4896,38.3541 80.2986,38.4561 L80.0016,38.6081 L80.0016,42.9101 L79.1086,42.9101 Z" id="Fill-24" fill="#FEFEFE" mask="url(#mask-4)"></path>
            <path d="M86.8362,39.6401 C86.8362,38.9211 86.7192,38.4121 86.4852,38.1161 C86.2512,37.8191 85.8702,37.6701 85.3422,37.6701 C84.8142,37.6701 84.4172,37.8271 84.1512,38.1391 C83.8852,38.4521 83.7482,38.9521 83.7402,39.6401 L86.8362,39.6401 Z M87.1582,42.1831 L87.5032,42.1481 L87.5272,42.8401 C86.6222,42.9651 85.8482,43.0281 85.2052,43.0281 C84.3482,43.0281 83.7402,42.7841 83.3832,42.2951 C83.0262,41.8071 82.8472,41.0461 82.8472,40.0151 C82.8472,37.9591 83.6762,36.9321 85.3362,36.9321 C86.1372,36.9321 86.7372,37.1531 87.1342,37.5941 C87.5312,38.0361 87.7302,38.7291 87.7302,39.6751 L87.6822,40.3431 L83.7522,40.3431 C83.7522,40.9921 83.8712,41.4731 84.1092,41.7851 C84.3482,42.0981 84.7622,42.2541 85.3542,42.2541 C85.9452,42.2541 86.5462,42.2301 87.1582,42.1831 L87.1582,42.1831 Z" id="Fill-25" fill="#FEFEFE" mask="url(#mask-4)"></path>
            <path d="M94.8264,37.811 L92.9324,37.811 L92.9324,40.613 C92.9324,41.285 92.9824,41.727 93.0814,41.937 C93.1814,42.148 93.4174,42.253 93.7904,42.253 L94.8504,42.184 L94.9094,42.911 C94.3774,42.997 93.9724,43.04 93.6954,43.04 C93.0764,43.04 92.6474,42.891 92.4094,42.594 C92.1704,42.297 92.0524,41.73 92.0524,40.894 L92.0524,37.811 L91.2064,37.811 L91.2064,37.049 L92.0524,37.049 L92.0524,35.255 L92.9324,35.255 L92.9324,37.049 L94.8264,37.049 L94.8264,37.811 Z" id="Fill-26" fill="#FEFEFE" mask="url(#mask-4)"></path>
            <path d="M96.8152,42.9101 L95.9212,42.9101 L95.9212,34.4931 L96.8152,34.4931 L96.8152,37.3771 C97.4502,37.0801 98.0612,36.9321 98.6482,36.9321 C99.4422,36.9321 99.9762,37.1431 100.2502,37.5651 C100.5242,37.9871 100.6612,38.7371 100.6612,39.8161 L100.6612,42.9101 L99.7682,42.9101 L99.7682,39.8391 C99.7682,39.0261 99.6872,38.4701 99.5232,38.1691 C99.3612,37.8681 99.0182,37.7171 98.4942,37.7171 C97.9942,37.7171 97.5092,37.8071 97.0412,37.9871 L96.8152,38.0691 L96.8152,42.9101 Z" id="Fill-27" fill="#FEFEFE" mask="url(#mask-4)"></path>
            <path d="M102.8518,41.2109 C102.8518,41.9299 103.1538,42.2889 103.7568,42.2889 C104.2968,42.2889 104.8288,42.1999 105.3528,42.0199 L105.6268,41.9259 L105.6268,39.9909 L103.8648,40.1549 C103.5068,40.1869 103.2488,40.2889 103.0898,40.4609 C102.9318,40.6319 102.8518,40.8819 102.8518,41.2109 M106.5198,38.8189 L106.5198,41.8199 C106.5428,42.1089 106.7738,42.2819 107.2098,42.3359 L107.1748,43.0279 C106.5468,43.0279 106.0758,42.8709 105.7578,42.5589 C105.0428,42.8709 104.3288,43.0279 103.6148,43.0279 C103.0668,43.0279 102.6498,42.8749 102.3638,42.5699 C102.0788,42.2659 101.9358,41.8279 101.9358,41.2569 C101.9358,40.6869 102.0818,40.2669 102.3748,39.9979 C102.6688,39.7279 103.1298,39.5619 103.7568,39.4989 L105.6268,39.3229 L105.6268,38.8189 C105.6268,38.4199 105.5398,38.1349 105.3648,37.9629 C105.1898,37.7919 104.9528,37.7059 104.6508,37.7059 C104.0148,37.7059 103.3568,37.7449 102.6728,37.8229 L102.3048,37.8579 L102.2688,37.1899 C103.1418,37.0179 103.9158,36.9319 104.5908,36.9319 C105.2648,36.9319 105.7558,37.0839 106.0618,37.3889 C106.3668,37.6939 106.5198,38.1699 106.5198,38.8189" id="Fill-28" fill="#FEFEFE" mask="url(#mask-4)"></path>
            <path d="M111.3665,37.811 L109.4725,37.811 L109.4725,40.613 C109.4725,41.285 109.5225,41.727 109.6215,41.937 C109.7205,42.148 109.9575,42.253 110.3305,42.253 L111.3895,42.184 L111.4495,42.911 C110.9175,42.997 110.5125,43.04 110.2345,43.04 C109.6155,43.04 109.1865,42.891 108.9495,42.594 C108.7115,42.297 108.5925,41.73 108.5925,40.894 L108.5925,37.811 L107.7465,37.811 L107.7465,37.049 L108.5925,37.049 L108.5925,35.255 L109.4725,35.255 L109.4725,37.049 L111.3665,37.049 L111.3665,37.811 Z" id="Fill-29" fill="#FEFEFE" mask="url(#mask-4)"></path>
            <path d="M116.2249,37.811 L116.2249,42.911 L115.3309,42.911 L115.3309,37.811 L114.5809,37.811 L114.5809,37.049 L115.3309,37.049 L115.3309,36.521 C115.3309,35.693 115.4509,35.128 115.6889,34.828 C115.9269,34.527 116.3439,34.376 116.9389,34.376 L118.1419,34.458 L118.1299,35.186 C117.6849,35.169 117.3179,35.162 117.0289,35.162 C116.7389,35.162 116.5329,35.255 116.4099,35.443 C116.2869,35.631 116.2249,35.994 116.2249,36.533 L116.2249,37.049 L117.9519,37.049 L117.9519,37.811 L116.2249,37.811 Z" id="Fill-30" fill="#FEFEFE" mask="url(#mask-4)"></path>
            <path d="M119.023,42.9105 L119.917,42.9105 L119.917,37.0495 L119.023,37.0495 L119.023,42.9105 Z M119.023,35.7245 L119.917,35.7245 L119.917,34.7045 L119.023,34.7045 L119.023,35.7245 Z" id="Fill-31" fill="#FEFEFE" mask="url(#mask-4)"></path>
            <path d="M124.7151,37.811 L122.8211,37.811 L122.8211,40.613 C122.8211,41.285 122.8711,41.727 122.9701,41.937 C123.0691,42.148 123.3061,42.253 123.6791,42.253 L124.7381,42.184 L124.7981,42.911 C124.2661,42.997 123.8611,43.04 123.5831,43.04 C122.9641,43.04 122.5351,42.891 122.2971,42.594 C122.0601,42.297 121.9411,41.73 121.9411,40.894 L121.9411,37.811 L121.0951,37.811 L121.0951,37.049 L121.9411,37.049 L121.9411,35.255 L122.8211,35.255 L122.8211,37.049 L124.7151,37.049 L124.7151,37.811 Z" id="Fill-32" fill="#FEFEFE" mask="url(#mask-4)"></path>
            <path d="M127.6799,37.7173 C126.8149,37.7173 126.3819,38.0143 126.3819,38.6083 C126.3819,38.8823 126.4809,39.0753 126.6799,39.1883 C126.8779,39.3013 127.3299,39.4193 128.0369,39.5403 C128.7429,39.6613 129.2429,39.8313 129.5369,40.0503 C129.8309,40.2693 129.9779,40.6793 129.9779,41.2803 C129.9779,41.8833 129.7819,42.3243 129.3889,42.6053 C128.9949,42.8863 128.4219,43.0283 127.6669,43.0283 C127.1759,43.0283 126.5959,42.9723 125.9289,42.8633 L125.5729,42.8053 L125.6189,42.0433 C126.5249,42.1753 127.2069,42.2423 127.6669,42.2423 C128.1279,42.2423 128.4799,42.1703 128.7219,42.0253 C128.9639,41.8803 129.0849,41.6383 129.0849,41.2983 C129.0849,40.9583 128.9819,40.7283 128.7759,40.6073 C128.5689,40.4863 128.1169,40.3703 127.4179,40.2603 C126.7189,40.1523 126.2229,39.9913 125.9289,39.7803 C125.6359,39.5693 125.4889,39.1783 125.4889,38.6083 C125.4889,38.0373 125.6939,37.6153 126.1019,37.3423 C126.5109,37.0683 127.0209,36.9323 127.6319,36.9323 C128.1169,36.9323 128.7239,36.9863 129.4539,37.0963 L129.7869,37.1553 L129.7639,37.9043 C128.8829,37.7793 128.1879,37.7173 127.6799,37.7173" id="Fill-33" fill="#FEFEFE" mask="url(#mask-4)"></path>
        </g>
    </g>
</svg>