<?xml version="1.0" encoding="utf-8"?>
<!-- Generator: Adobe Illustrator 21.1.0, SVG Export Plug-In . SVG Version: 6.00 Build 0)  -->
<!DOCTYPE svg PUBLIC "-//W3C//DTD SVG 1.1//EN" "http://www.w3.org/Graphics/SVG/1.1/DTD/svg11.dtd">
<svg version="1.1"
	 id="svg3510" inkscape:version="0.91 r" sodipodi:docname="mijs.svg" xmlns:cc="http://creativecommons.org/ns#" xmlns:dc="http://purl.org/dc/elements/1.1/" xmlns:inkscape="http://www.inkscape.org/namespaces/inkscape" xmlns:rdf="http://www.w3.org/1999/02/22-rdf-syntax-ns#" xmlns:sodipodi="http://sodipodi.sourceforge.net/DTD/sodipodi-0.dtd" xmlns:svg="http://www.w3.org/2000/svg"
	 xmlns="http://www.w3.org/2000/svg" xmlns:xlink="http://www.w3.org/1999/xlink" x="0px" y="0px" viewBox="0 0 375 375"
	 style="enable-background:new 0 0 375 375;" xml:space="preserve">
<style type="text/css">
	.st0{fill:transparent;}
	.st1{clip-path:url(#SVGID_2_);}
	.st2{fill:#FFFFFF;}
	.st3{clip-path:url(#SVGID_4_);}
</style>
<sodipodi:namedview  bordercolor="#666666" borderopacity="1" gridtolerance="10" guidetolerance="10" id="namedview3512" inkscape:current-layer="g3518" inkscape:cx="118.16572" inkscape:cy="140.68987" inkscape:pageopacity="0" inkscape:pageshadow="2" inkscape:window-height="1056" inkscape:window-maximized="1" inkscape:window-width="1855" inkscape:window-x="65" inkscape:window-y="24" inkscape:zoom="2.4506667" objecttolerance="10" pagecolor="#ffffff" showgrid="false" showguides="true">
	<inkscape:grid  id="grid3588" type="xygrid"></inkscape:grid>
</sodipodi:namedview>
<g id="g3518" transform="matrix(1.25,0,0,-1.25,0,375)" inkscape:groupmode="layer" inkscape:label="mijs2">
	<path id="path3520" inkscape:connector-curvature="0" class="st0" d="M0,0h300v300H0V0z"/>
	<g id="g3522">
		<g>
			<defs>
				<rect id="SVGID_1_" x="-37.5" y="-37.5" width="375" height="375"/>
			</defs>
			<clipPath id="SVGID_2_">
				<use xlink:href="#SVGID_1_"  style="overflow:visible;"/>
			</clipPath>
			<g id="g3524" class="st1">
				<g id="g3530" transform="translate(256.6443,60.6934)">
				</g>
				<g id="g3534" transform="translate(195.9263,104.1262)">
				</g>
				<path id="path3540" inkscape:connector-curvature="0" class="st2" d="M80.2,121.2h18.4v122H80.2V121.2z"/>
				<path id="path3542" inkscape:connector-curvature="0" class="st2" d="M112.7,121.2h18.4v162.2h-18.4
					C112.7,283.3,112.7,121.2,112.7,121.2z"/>
				<path id="path3544" inkscape:connector-curvature="0" class="st2" d="M163.2,243.1h-18.4v-122h18.4V243.1z"/>
			</g>
		</g>
	</g>
	<g id="g3548">
		<g>
			<defs>
				<rect id="SVGID_3_" x="-37.5" y="-37.5" width="375" height="375"/>
			</defs>
			<clipPath id="SVGID_4_">
				<use xlink:href="#SVGID_3_"  style="overflow:visible;"/>
			</clipPath>
			<g id="g3550" class="st3">
				<g id="g3556" transform="translate(257.1162,60.6934)">
					<path id="path3558" inkscape:connector-curvature="0" class="st2" d="M-1.6,0c-4.6,4.2-10.1,6.8-15.7,9.4
						c-3.8,1.7-7.5,3.6-10.9,5.9c-2.9,1.9-3.3,5-2.5,8.2c0.7,2.9,2.7,4.7,5.5,5.2c4.5,0.8,8.4-0.5,11.2-4.4c0.6-0.9,1.2-1.8,2-2.9
						c4.2,2.8,8.2,5.4,12.2,8.2c0.4,0.3,0.6,1.6,0.3,2.1c-0.9,1.6-2,3.2-3.2,4.6C-8.7,43-16.2,45-24.7,44.5
						C-34.4,44-42.3,40.1-46,30.8c-3.9-9.5-2.9-18.8,4-26.9c3.9-4.6,9.1-7.1,14.4-9.6c4.2-2,8.5-4,12.6-6.4c3-1.7,4.4-4.7,3.9-8.2
						c-0.5-3.5-2.7-5.7-6-6.6c-6.5-1.8-12.5-1-17.4,4c-1.7,1.7-3.1,3.7-4.8,5.8c-4.5-2.7-9.1-5.5-14.2-8.6c2.5-3.2,4.4-6.4,7-8.8
						c10-9.3,21.9-11,34.7-7.8c9.1,2.3,15.5,7.9,17.4,17.3C7.4-15.7,5.9-6.9-1.6,0"/>
				</g>
				<path id="path3564" inkscape:connector-curvature="0" class="st2" d="M48.6,121.2H67v81.3H48.6
					C48.6,202.5,48.6,121.2,48.6,121.2z"/>
				<path id="path3566" inkscape:connector-curvature="0" class="st2" d="M178.7,121.2h18.4v81.3h-18.4
					C178.7,202.5,178.7,121.2,178.7,121.2z"/>
				<g id="g3568" transform="translate(80.1911,209.5616)">
				</g>
				<g id="g3572" transform="translate(162.7676,209.0955)">
				</g>
				<g id="g3576" transform="translate(122.248,174.6933)">
				</g>
			</g>
		</g>
	</g>
</g>
<g>
	<path class="st2" d="M246.5,244.6v19.4h-32.7v90h-23v-90h-32.9v-19.4H246.5z"/>
</g>
</svg>
